<?xml version="1.0" standalone="no"?>
<svg xmlns="http://www.w3.org/2000/svg" viewBox="0 0 340.000000 400.000000" width="512" height="512">
  <g transform="translate(0,400.000000) scale(0.1,-0.1)">
    <g fill="#1E1B4B" stroke="none">
      <path d="M2244 2376 c-3 -9 -13 -16 -21 -16 -8 0 -17 -9 -20 -20 -3 -11 -12
-20 -20 -20 -8 0 -17 -9 -20 -20 -3 -11 -12 -20 -19 -20 -8 0 -17 -7 -20 -15
-4 -8 -13 -15 -21 -15 -8 0 -17 -9 -20 -20 -3 -11 -12 -20 -19 -20 -8 0 -17
-7 -21 -15 -3 -9 -20 -22 -37 -31 -64 -31 -86 -45 -86 -58 0 -25 -97 -31 -171
-10 -24 7 -41 55 -37 105 l3 44 -55 9 c-77 12 -331 11 -418 -2 -40 -6 -86 -18
-103 -26 -17 -9 -46 -18 -64 -22 -19 -3 -36 -12 -39 -19 -3 -8 -21 -17 -40
-21 -20 -3 -36 -9 -36 -13 0 -4 -16 -13 -35 -20 -19 -7 -35 -17 -35 -22 0 -5
-11 -14 -25 -19 -14 -5 -25 -16 -25 -25 0 -8 -5 -15 -12 -15 -15 0 -108 -98
-108 -114 0 -6 -9 -19 -20 -29 -11 -9 -20 -24 -20 -33 0 -8 -7 -22 -15 -30 -8
-8 -17 -31 -21 -52 -4 -20 -14 -42 -23 -49 -14 -10 -16 -41 -16 -223 0 -190 2
-213 18 -224 9 -7 17 -22 17 -33 0 -49 116 -233 147 -233 6 0 13 -9 16 -20 3
-11 12 -20 20 -20 8 0 17 -9 20 -20 3 -11 12 -20 20 -20 8 0 17 -7 21 -15 3
-8 10 -15 17 -15 6 0 22 -9 36 -20 14 -11 34 -20 45 -20 10 0 21 -6 24 -14 3
-8 27 -17 57 -21 28 -4 57 -13 64 -20 30 -30 372 -30 419 0 12 8 37 17 58 20
20 4 36 11 36 16 0 4 16 11 35 15 20 3 40 15 46 25 5 11 16 19 24 19 8 0 15 5
15 10 0 6 18 17 40 26 22 9 40 20 40 25 0 23 31 5 44 -26 8 -19 20 -35 25 -35
6 0 11 -7 11 -15 0 -9 11 -20 25 -25 14 -5 25 -14 25 -19 0 -6 17 -13 38 -17
20 -4 47 -13 59 -21 26 -17 180 -14 228 5 17 6 47 14 69 17 l39 6 -7 66 c-4
36 -13 71 -20 78 -7 8 -16 44 -20 81 -4 37 -13 79 -21 93 -8 14 -18 81 -23
150 -6 68 -14 126 -20 130 -12 8 -23 316 -23 658 0 250 -6 318 -25 269z m-643
-532 c27 -13 49 -29 49 -34 0 -6 7 -10 15 -10 9 0 20 -11 25 -25 5 -14 14 -25
19 -25 5 0 12 -13 16 -30 4 -16 14 -34 23 -39 15 -8 17 -30 17 -156 0 -128 -2
-148 -17 -156 -10 -5 -20 -25 -24 -44 -3 -20 -12 -35 -20 -35 -8 0 -14 -7 -14
-15 0 -9 -7 -18 -16 -22 -9 -3 -31 -21 -49 -38 -18 -18 -47 -36 -66 -40 -19
-4 -37 -12 -40 -17 -9 -14 -175 -14 -191 0 -7 5 -30 13 -50 17 -23 4 -38 13
-38 21 0 8 -8 18 -17 21 -10 4 -22 12 -26 20 -4 7 -15 13 -22 13 -8 0 -15 8
-15 18 0 9 -8 22 -18 29 -11 6 -25 32 -32 57 -7 26 -17 49 -21 52 -5 3 -9 56
-9 119 0 88 3 114 14 118 8 3 17 20 21 37 4 18 14 41 24 51 43 50 98 100 116
105 11 4 23 11 26 16 11 17 95 27 183 22 67 -4 100 -11 137 -30z M3227 1880
c-20 -11 -48 -20 -61 -20 -14 0 -28 -5 -31 -11 -4 -5 -18 -14 -31 -19 -13 -5
-24 -16 -24 -25 0 -8 -6 -15 -14 -15 -8 0 -18 -10 -22 -22 -3 -12 -13 -28 -20
-35 -7 -7 -16 -35 -19 -61 -3 -26 -10 -55 -16 -64 -5 -10 -9 -38 -9 -63 0 -25
4 -53 9 -63 6 -9 13 -38 16 -64 4 -30 11 -48 20 -48 7 0 15 -10 19 -22 7 -30
59 -85 88 -94 13 -4 26 -11 29 -16 8 -12 181 -32 213 -24 24 6 26 10 26 60 l0
54 -76 4 c-59 3 -78 7 -85 21 -6 9 -17 17 -24 17 -8 0 -15 6 -15 14 0 7 -10
20 -22 28 -18 12 -22 26 -26 95 -6 102 4 173 24 173 8 0 14 6 14 13 0 20 43
53 86 67 22 7 43 16 49 21 5 5 24 9 42 9 l33 0 0 55 0 55 -68 0 c-48 0 -78 -6
-105 -20z"/>
    </g>
    <g fill="#F59E0B" stroke="none">
      <path d="M2430 2975 c0 -6 -42 -10 -104 -11 -62 0 -110 -5 -118 -12 -8 -6 -35
-16 -62 -22 -26 -6 -55 -17 -63 -25 -8 -8 -25 -15 -39 -15 -13 0 -32 -9 -41
-20 -10 -11 -23 -20 -30 -20 -29 0 -10 -20 24 -26 21 -4 43 -13 50 -19 6 -7
30 -15 52 -19 49 -8 55 -16 36 -52 -8 -16 -15 -34 -15 -41 0 -7 -9 -17 -20
-23 -11 -6 -20 -17 -20 -25 0 -8 -6 -15 -14 -15 -8 0 -18 -9 -21 -21 -7 -21
-21 -40 -62 -83 -13 -13 -23 -27 -23 -32 0 -5 -8 -17 -17 -26 -34 -31 -63 -70
-63 -83 0 -8 -9 -19 -20 -25 -11 -6 -20 -17 -20 -25 0 -8 -7 -15 -15 -15 -8 0
-15 -7 -15 -15 0 -8 -9 -20 -20 -27 -24 -15 -26 -28 -5 -28 8 0 15 5 15 11 0
11 23 39 68 84 12 12 22 27 22 32 0 6 9 13 20 16 11 3 20 12 20 21 0 9 5 16
10 16 6 0 10 -15 10 -33 0 -36 20 -60 77 -92 l31 -18 77 61 c43 34 84 62 91
62 8 0 14 7 14 15 0 8 7 15 15 15 9 0 18 8 22 18 11 30 46 62 69 62 12 0 42
-18 65 -40 24 -22 46 -40 50 -40 11 0 19 41 19 97 0 28 5 53 10 55 6 2 17 50
24 108 7 58 18 118 25 133 12 30 15 105 5 131 -8 20 -94 23 -94 4 0 -9 -4 -8
-10 2 -5 8 -10 11 -10 5z"/>
    </g>
  </g>
</svg>