<?xml version="1.0" standalone="no"?>
<svg xmlns="http://www.w3.org/2000/svg" viewBox="0 0 1950.000000 360.000000">
  <g transform="translate(0,360.000000) scale(0.1,-0.1)">
    <g fill="#1E1B4B" stroke="none">
      <path d="M13547 2165 c-128 -122 -189 -165 -235 -165 -25 0 -49 8 -67 21 -24
20 -26 26 -20 64 7 52 4 54 -151 62 -191 10 -340 -33 -478 -136 -241 -181
-284 -559 -93 -818 56 -75 126 -124 256 -179 64 -27 298 -27 361 0 79 33 93
40 144 79 28 20 57 37 66 37 8 0 25 -18 37 -39 47 -81 186 -114 321 -75 32 9
58 18 60 19 1 1 -9 49 -23 106 -42 171 -45 188 -56 293 -5 56 -14 142 -19 191
-5 50 -10 208 -10 353 0 144 -3 262 -7 262 -5 -1 -43 -34 -86 -75z m-421 -349
c46 -21 114 -89 114 -114 0 -5 7 -23 15 -38 9 -18 15 -57 15 -100 0 -194 -149
-330 -319 -292 -75 16 -159 96 -185 177 -51 157 14 313 154 374 55 24 146 21
206 -7z M17807 2063 c-4 -3 -7 -61 -7 -129 0 -67 -3 -129 -6 -138 -8 -20 -28
-20 -45 0 -60 73 -218 72 -316 -2 -106 -80 -112 -310 -12 -414 82 -84 246 -94
326 -18 26 24 50 18 55 -13 2 -18 12 -25 42 -31 68 -14 66 -26 66 367 0 195
-3 360 -6 369 -4 11 -19 16 -48 16 -24 0 -46 -3 -49 -7z m-84 -333 c102 -70
100 -225 -5 -300 -95 -69 -211 -20 -243 101 -12 46 -12 60 1 104 14 49 58 104
94 119 33 13 119 -1 153 -24z M14312 1824 c-68 -33 -105 -84 -127 -175 -15
-60 -16 -80 -6 -122 34 -147 115 -217 253 -217 63 0 114 16 137 43 20 25 46
21 59 -9 11 -22 17 -25 60 -22 l47 3 2 245 c2 135 -1 251 -6 259 -21 32 -111
13 -111 -24 0 -18 -36 -20 -47 -2 -17 25 -84 47 -146 47 -46 -1 -76 -8 -115
-26z m224 -85 c63 -30 88 -77 88 -159 -1 -52 -6 -74 -25 -102 -46 -70 -141
-98 -210 -63 -16 9 -43 34 -59 57 -26 36 -30 50 -30 108 0 59 4 72 31 109 51
71 126 89 205 50z M14975 1826 c-66 -30 -86 -62 -86 -133 0 -47 4 -60 27 -84
29 -31 93 -57 198 -83 39 -9 78 -24 88 -33 29 -26 19 -65 -22 -86 -45 -23
-148 -17 -214 12 -52 24 -67 26 -84 9 -62 -62 129 -145 276 -120 74 12 128 38
156 75 26 35 27 114 2 151 -19 29 -69 64 -101 70 -178 35 -229 58 -223 105 8
62 108 81 223 41 l60 -21 18 22 c9 12 17 25 17 29 0 4 -8 14 -17 22 -62 52
-229 65 -318 24z M15573 1829 c-84 -39 -138 -135 -138 -249 0 -157 98 -270
236 -272 62 0 117 18 151 50 49 45 58 28 58 -111 0 -82 4 -127 12 -135 16 -16
70 -16 86 0 18 18 17 697 -1 723 -20 26 -84 13 -97 -20 -13 -33 -24 -37 -51
-16 -72 55 -174 68 -256 30z m238 -99 c92 -67 91 -234 -2 -301 -47 -33 -127
-38 -173 -10 -58 36 -81 84 -81 168 1 65 4 76 31 110 17 21 46 44 65 51 46 16
123 8 160 -18z M16260 1832 c-94 -45 -130 -92 -149 -197 -22 -118 20 -231 106
-285 90 -57 198 -62 301 -13 63 30 73 47 43 76 -19 19 -24 20 -53 8 -61 -24
-113 -32 -163 -25 -41 5 -57 14 -87 46 -27 27 -38 48 -38 68 0 17 1 31 3 32 1
1 88 4 192 7 l190 6 3 60 c2 53 -1 67 -30 115 -24 40 -48 64 -88 87 -48 29
-62 33 -125 32 -43 0 -83 -7 -105 -17z m173 -78 c38 -18 70 -70 65 -105 -2
-20 -11 -25 -48 -31 -68 -10 -176 -9 -204 2 -32 12 -34 43 -6 84 39 60 125 82
193 50z M16769 1843 c-17 -3 -29 -12 -33 -26 -12 -45 -7 -482 6 -495 16 -16
73 -15 87 2 7 8 12 73 13 172 3 145 5 162 26 195 47 77 154 91 216 30 l31 -31
3 -178 c2 -101 8 -182 14 -189 15 -18 63 -16 82 3 13 13 16 42 16 162 0 162
-12 261 -37 298 -53 82 -202 87 -305 11 -26 -20 -48 -17 -48 7 0 12 -32 48
-41 45 -2 -1 -16 -4 -30 -6z"/>
    </g>
    <g fill="#F59E0B" stroke="none">
      <path d="M13800 2730 c-11 -7 -5 -10 23 -10 20 0 37 5 37 10 0 13 -40 13 -60
0z M13645 2698 c-47 -12 -214 -75 -235 -89 -19 -12 -5 -21 54 -39 68 -20 86
-29 86 -43 0 -12 -218 -312 -274 -377 l-21 -25 28 25 c16 14 52 56 80 95 40
53 53 65 56 50 2 -11 -2 -21 -8 -23 -24 -8 -12 -53 19 -70 16 -9 30 -23 30
-29 0 -28 39 -9 103 50 37 35 69 62 71 60 2 -2 14 12 26 31 12 20 27 36 34 36
7 0 27 -16 46 -35 51 -52 48 -56 70 80 7 39 18 101 26 139 8 38 14 90 14 117
0 47 -1 49 -27 49 -16 0 -53 2 -83 4 -30 2 -73 0 -95 -6z"/>
    </g>
  </g>
</svg>